<svg width="149" height="31" fill="none" xmlns="http://www.w3.org/2000/svg"><path d="M20.9 10.4l-.8-.8-1.3-1h-.3l-.8-.5-.4-.3-1-.5-.7-.3-1.3-.4-.6-.1-1.9-.4v.3l.1.1.2.3c3 .1 4.4 1.5 4.3 4.3 0 1.3-.4 2.7-1 4l-.5-2.6-.9-1.8-.3-.5L13 9l-.4-.3-.7-.9-.4.1c-.2 0-.4 0-.6-.2l-.2-.3.1.5-.2 1.2-.3 2.1a96 96 0 00-.5 4.4L9.5 18V20a70.7 70.7 0 00.6 5.6c0 .6.2 1 .3 1.4h-3V26l-.1-2v-1.4l.2-2.3A55.3 55.3 0 019 11l.7-2.1.4-1.2.5-.3a1 1 0 01-.4 0l-.5-.1-.8.8-.6.8-.4.4-1 1.9-.2.5c-.4.5-.7 1.6-1 3.2-1.5-3.6-1.3-6.1.6-7.4.6-.4 1.3-.6 2.1-.7h1v-.5l-1.7-.2-.5.1-1.8.1-.4.1-1.6.5c-.7.2-1.5.5-2.3 1L0 8.8C2 4 4.3 2.2 6.8 3A6 6 0 0110 6h.3c0-.2 0-.3.2-.4l-.3-.6-.2-.3-.7-.9-.6-.5-.8-.7-.4-.4c-.4-.4-1-.8-2-1.2L4.1.4C8-.5 10.2.1 11.1 2c.4 1 .4 2 0 3.1l.5.2c.5-.5 1.1-1 1.7-1.2a6 6 0 012-.5c2.5-.1 4.4 2.1 5.6 6.8zm-9-4.3V6c0-.3-.1-.5-.3-.6l.2.7zm-.8-1c-.3 0-.5.1-.7.3l.7-.3zm.6 1.3a1 1 0 00-.3-.1H11l-.2.2-.1.2-.1.4v.3l1.1-1zm0 1.4l.2-.1.3-.6v-.3l-.4 1zm-1.5-2V6c0 .2 0 .4.2.5l.3.2-.5-.9zm-.3 0l-.2.3-.2.2.4-.4zm-.5 1l.2.4-.2-.4zm.7 18.8l-2.8.5 2.8-.5zM33.2 15c0 .6-.2 1-.6 1l-1.2-.8c-.6-.5-1.1-.9-1.6-1-.4-.3-.9-.4-1.4-.4a3 3 0 00-1.6.4c-1.3.8-2 2.5-2 5.1 0 .8.1 1.5.4 2.2.6 2 2 3.1 3.9 3.1.9 0 1.8-.3 2.8-1l1-.6c.3 0 .5.1.5.4v.3l-.5.9c-.3.4-.7.8-1.2 1-.9.4-1.9.6-3.1.6h-.3c-1 0-1.9-.2-2.7-.5a6 6 0 01-3.3-3.5 7 7 0 01-.5-2.5V19c0-.8.2-1.6.5-2.5.6-1.7 1.8-3 3.4-3.7.8-.3 1.6-.5 2.5-.5h.3c2 0 3.4.2 4 .6.5.2.7 1 .7 2zM40.5 22c0-.3 0-.4-.2-.4H40a2 2 0 01-.4 0c-.5 0-1 .2-1.5.5-.4.4-.6.8-.6 1.2v.2c0 .4.1.6.4.9.2.2.4.4.7.4h.3c.5 0 .8-.2 1.1-.5.3-.2.5-.5.5-.7v-1.4-.2zm4 3.1v.1c0 .3-.2.5-.7.7-.5.2-1 .3-1.8.3-.4 0-.7-.2-1-.6l-.4-.3c-.1 0-.3 0-.5.2a4.2 4.2 0 01-2.4.8 3 3 0 01-2-.7c-.5-.4-.8-1-.8-1.8 0-1.7 1.3-2.8 3.9-3.2l1.1-.2c.4-.2.6-.5.6-1 0-.6-.1-1-.4-1.2-.2-.3-.5-.4-.8-.4-.5 0-1 .3-1.4.8-.4.6-1 .9-1.5.9-.3 0-.6-.1-.7-.3a.8.8 0 01-.3-.6c0-.5.3-1 1-1.3 1-.6 2-.9 3.1-.9h.5c.6 0 1.1.2 1.6.4s1 .6 1.2 1c.3.6.4 1.7.4 3.3 0 1.7 0 2.7.2 3 0 .2.3.4.6.5.3.2.5.3.5.5zM53.3 21.3v-.6c0-.8-.2-1.5-.7-2.2-.3-.4-.8-.7-1.4-.7-.6 0-1 .3-1.4.7-.2.3-.3.8-.3 1.4v3.2c0 .5.2 1 .5 1.3.3.3.7.5 1.1.5h.2c.6 0 1.2-.4 1.6-1.1.3-.5.5-1.3.5-2.3v-.2zm-3.6 6c0 .6.1 1 .4 1.4l.4.5c.2.2.4.4.4.6 0 .2-.2.3-.5.4a9 9 0 01-1.8.1h-.3l-2-.1c-.3-.1-.4-.2-.4-.4 0 0 .1-.4.5-.9l.6-1.5a96.9 96.9 0 000-8.6l-.7-.7c-.4-.3-.6-.5-.6-.7 0-.3.2-.4.5-.5.9-.3 1.7-.5 2.4-.5.2 0 .4 0 .5.2l.2.3.3.3.5-.3.9-.4 1.3-.2h.2c.5 0 1 .1 1.4.4.5.3 1 .6 1.3 1 .6.8 1 1.9 1 3.1 0 1.6-.5 2.8-1.4 3.8a4 4 0 01-1.5 1 5.3 5.3 0 01-2.6.3H50.1c-.3 0-.4.4-.4 1.5zM58 17.9c-.3-.2-.4-.4-.4-.6 0-.2.2-.3.5-.5l.7-.5.4-.9.6-1.1c.2-.3.4-.4.8-.4.3 0 .6 0 .7.4l.3.8c0 .5.2.8.4 1l.8.4.7.2.3.6c0 .2-.3.4-1 .6-.5.2-1 .4-1.1.7-.2.4-.3 1.2-.3 2.5a7 7 0 00.3 2.6c.3.4.6.6 1 .6h.9c.4 0 .6.1.6.4 0 .4-.2.7-.7 1a5 5 0 01-2.2.4c-.4 0-.7 0-1-.3-.4-.2-.7-.4-.9-.7-.4-.5-.5-1.3-.5-2.3v-.2-1.1c0-1.1-.2-2-.3-2.9-.1-.3-.3-.5-.6-.7zM71.1 22c0-.3 0-.4-.2-.4h-.3a2 2 0 01-.4 0c-.5 0-1 .2-1.4.5-.4.4-.7.8-.7 1.2v.2c0 .4.2.6.4.9.2.2.4.4.7.4h.3c.5 0 .8-.2 1.1-.5.3-.2.5-.5.5-.7v-1.4-.2zm4 3.1v.1c0 .3-.2.5-.7.7-.5.2-1 .3-1.8.3-.4 0-.7-.2-1-.6l-.4-.3c-.1 0-.3 0-.5.2a4.2 4.2 0 01-2.4.8 3 3 0 01-2-.7c-.5-.4-.8-1-.8-1.8 0-1.7 1.3-2.8 4-3.2l1-.2c.4-.2.6-.5.6-1 0-.6-.1-1-.4-1.2-.2-.3-.5-.4-.8-.4-.5 0-1 .3-1.4.8-.4.6-1 .9-1.5.9-.3 0-.5-.1-.7-.3a.8.8 0 01-.3-.6c0-.5.3-1 1-1.3 1-.6 2-.9 3.1-.9h.5c.6 0 1.1.2 1.6.4s1 .6 1.2 1c.3.6.4 1.7.4 3.3 0 1.7 0 2.7.2 3 0 .2.3.4.6.5.3.2.5.3.5.5zM77.5 13.3c0-.3.2-.7.5-1 .3-.2.6-.3 1-.3h.5c.3 0 .6.2.8.4l.4.8v.4c0 .3-.2.6-.5.8-.3.3-.7.4-1 .4h-.3c-.4 0-.7 0-1-.3a1 1 0 01-.4-.8v-.4zM79.4 26h-2.5c-.2 0-.3-.2-.3-.4 0-.3.2-.6.5-.9.3-.3.5-.6.6-1 .1-.3.2-1.2.2-2.5 0-1.4 0-2.2-.2-2.5 0-.2-.2-.4-.6-.6-.4-.2-.6-.4-.6-.7 0-.2.2-.4.5-.5.8-.3 1.7-.4 2.6-.4h.2c.3 0 .6.1.6.5v3.2c0 2 .1 3.2.2 3.6 0 .3.3.7.7 1l.5.8c0 .3-.8.4-2.4.4zM94.5 25.3c0 .3-.2.4-.6.6l-2 .1c-1 0-1.5 0-1.7-.2l-.2-.4c0-.2 0-.5.2-.9l.3-.8v-2.3c0-1.3 0-2.1-.2-2.6-.3-.5-.7-.7-1.3-.7-.7 0-1.2.3-1.6.8-.2.4-.4 1-.4 2a10.5 10.5 0 00.7 4.5c0 .3-.1.4-.4.5a13.1 13.1 0 01-3.8-.1.6.6 0 01-.3-.6c0-.2.2-.4.5-.6.4-.3.6-.5.6-.7a21.7 21.7 0 000-5l-.6-.9-.5-.5v-.2l.3-.3c.5-.3 1.4-.5 2.5-.5.3 0 .6.2.8.5.2.3.4.4.5.4 0 0 .3 0 .6-.3l.6-.3c.6-.3 1-.4 1.5-.4h.3c1.1 0 2 .5 2.4 1.4.4.6.5 2 .5 4.2a9 9 0 00.1 2.1c.1.2.3.4.7.6.3.2.5.4.5.6zM97.6 11.6h.2c.5 0 .8.2 1 .5.3.2.4.6.4 1.2v.4c0 .7-.2 1.4-.7 2.1-.7 1-1.3 1.5-1.8 1.5-.4 0-.6-.2-.6-.5l.5-.7c.4-.5.5-.9.5-1.3l-.5-.7c-.3-.3-.5-.6-.5-1V13c0-.4.2-.7.5-1 .3-.2.6-.4 1-.4zM107.3 16.8c.3.2.5.5.5 1l-.1 1.2-.5.2c-.4 0-.8-.2-1.2-.8a2 2 0 00-1.6-.8c-.3 0-.6.1-.8.3-.3.2-.4.4-.4.6 0 .4.2.8.6 1l1.8.8c1 .4 1.6.9 2 1.3.5.5.7 1 .7 1.8s-.3 1.4-1 2c-.6.5-1.4.8-2.4.8h-.6a7 7 0 01-2.8-.4c-.4-.2-.7-.7-.7-1.5s.2-1.2.5-1.2c.4 0 .8.3 1.4 1 .5.5 1.1.8 1.8.8.3 0 .7 0 1-.2.2-.2.4-.4.4-.8s-.2-.7-.6-1l-1.7-.7c-.8-.4-1.5-.8-1.8-1.2-.6-.5-.9-1.1-.9-2 0-.7.3-1.3 1-1.9.7-.5 1.4-.7 2.3-.7h.3c1.4 0 2.3.1 2.8.4zM120.6 13l-.6.8a3 3 0 00-.7 1.2l-.1 4.5v4.4c.1.3.3.5.5.6l1.3.1c.6 0 1-.1 1.5-.3A5 5 0 00124 23c.5-.5 1-.8 1.3-.8.3 0 .5.2.5.5v.3a6.5 6.5 0 01-.6 2.6c-.2.2-.7.3-1.5.3h-8.1c-.3-.1-.5-.3-.5-.6 0-.1.2-.4.6-.7l.7-1.4a53.6 53.6 0 000-8.8l-.8-.8c-.4-.2-.7-.5-.7-.9 0-.2.7-.4 2-.4h2.5c.5 0 .9 0 1 .2.2 0 .3.2.3.4zM131.5 17.6h-.2c-.6 0-1 .3-1.4 1-.3.6-.5 1.4-.5 2.2v.6c0 1 .2 1.8.6 2.5.4.7.9 1 1.5 1h.2c.5 0 .9-.2 1.3-.7.3-.6.5-1.2.5-2V21v-.3c0-.9-.2-1.6-.6-2.3-.4-.6-.9-.9-1.4-.9zm0-1.3h.5c.5 0 1.1.2 1.8.4 1.1.6 2 1.4 2.4 2.6l.3 1.8v.2A5 5 0 01135 25a4.8 4.8 0 01-3.6 1.3c-.7 0-1.3-.1-1.9-.3l-1.5-1a5 5 0 01-1.2-3.5V21.1c0-.6.1-1.2.4-1.8a4.6 4.6 0 014.3-3zM143.5 19.3V19c0-.5-.1-1-.4-1.3-.2-.3-.6-.5-1-.5s-.7.2-1 .6c-.2.4-.3.8-.3 1.3v.5c0 .6.1 1.2.4 1.6.3.4.7.6 1 .6.4 0 .7-.1 1-.4.2-.4.3-.7.3-1.2v-.8zm.6 6.8a5 5 0 00-.8 0l-.1-.1h-.5-1.2c-.3 0-.6.1-.9.4-.2.3-.4.6-.4 1v.2c0 .4.2.7.5 1 .3.2.8.3 1.2.3h.5c.8 0 1.5-.2 2.2-.7.4-.3.6-.7.6-1.2 0-.3-.1-.5-.3-.6-.2-.2-.5-.3-.8-.3zm3.3-9.3l.2.5c0 .3-.1.5-.4.6l-.7.4-.1.7V20c0 .4 0 .8-.3 1.2-.6 1.1-1.7 1.8-3.2 2l-1.1.1c-.4.1-.6.3-.6.6s0 .4.3.5l2.2.3c1.2 0 2 .2 2.4.4.4.2.7.5.9.8.2.3.3.7.3 1.2s-.2 1-.5 1.4a5 5 0 01-2.9 1.9c-.6.2-1.3.3-2 .3h-.3c-1.2 0-2.1-.3-2.7-.7-.7-.5-1-1-1-1.7 0-.4.1-.8.4-1.2l.4-.5c.3-.2.4-.4.4-.5l-.4-.5-.3-1c0-.4.1-.8.5-1.2l.5-.8s-.1-.3-.5-.6c-.3-.4-.6-1-.7-1.5l-.1-.6a3 3 0 011.4-2.6 5 5 0 012.7-.7H143.6l.5.1h2.6c.4 0 .6 0 .7.2z" fill="#041D35"/></svg>