<svg width="180" height="180" xmlns="http://www.w3.org/2000/svg"><path d="M82.4 180H81L0 99v-2.8L6.2 90 0 83.8V81L81 0h2.8L90 6.2 96.2 0H99l81 81v2.8l-6.2 6.2 6.2 6.2V99l-81 81h-2.8l-6.2-6.2-6.2 6.2h-1.4zm0-1.4l-81-81L9 90l-7.6-7.6 81-81L90 9l7.6-7.6 81 81L171 90l7.6 7.6-81 81L90 171l-7.6 7.6zM175.2 0h-25.8c1 3 2.6 5.6 4.6 7.9a10 10 0 007 17.1 3 3 0 013 3v4h16V0h-4.8a6 6 0 11-10.4 0h10.4-13.7a9 9 0 00-.5 3v4a8 8 0 000 16 5 5 0 015 5v2h4v-4h2v4h4v-4h2v4h2V0h-4.8zm-15.8 0c-.3 1-.4 2-.4 3v2.2a10 10 0 00-3.4 1.4 22 22 0 01-4.1-6.6h8zM180 17h-3l2.1-10h.9v10zm-30.6 163a24 24 0 0122.6-32h8v32h-30.6zm12.1 0a9 9 0 012.4-3.7l-1.3-1.4a11 11 0 00-3.2 5.1h-7.9a22 22 0 0120.5-30h8v30h-18.5zm13.7 0a6 6 0 00-10.4 0h10.4zM0 148h8a24 24 0 0122.6 32H0v-32zm0 2h8a22 22 0 0120.5 30h-8a11 11 0 00-3.1-5.1l-1.3 1.4c1 1 1.9 2.3 2.4 3.7H0v-30zm15.2 30a6 6 0 00-10.4 0h10.4zM0 32h16v-4a3 3 0 013-3 10 10 0 007-17.1c2-2.3 3.6-5 4.6-7.9H0v32zm0-2h2v-4h2v4h4v-4h2v4h4v-2a5 5 0 015-5 8 8 0 100-16V3c0-1-.2-2-.5-3H0v30zM28.5 0a22 22 0 01-4 6.6A10 10 0 0021 5.2V3c0-1-.1-2-.4-3h7.9zM0 17h3L.9 7H0v10zM15.2 0A6 6 0 114.8 0h10.4zM109 115a3 3 0 00-3 3v4H74v-4a3 3 0 00-3-3 10 10 0 01-7-17.1A24 24 0 0182 58h16a24 24 0 0118 39.9 10 10 0 01-7 17.1zm0-2a5 5 0 00-5 5v2h-4v-4h-2v4h-4v-4h-2v4h-4v-4h-2v4h-4v-4h-2v4h-4v-2a5 5 0 00-5-5 8 8 0 110-16v-4a9 9 0 013-6.7L72.5 85A11 11 0 0069 93v2.2a10 10 0 00-3.4 1.4A22 22 0 0182 60h16a22 22 0 0116.4 36.6 10 10 0 00-3.4-1.4V93a11 11 0 00-3.6-8.1l-1.3 1.4A9 9 0 01109 93v4a8 8 0 010 16zM90.9 97l2.1 10h-6l2.1-10H91zM80 99a6 6 0 100-12 6 6 0 000 12zm20 0a6 6 0 100-12 6 6 0 000 12z" fill="#EBD3B2" fill-rule="evenodd"/></svg>