<?xml version="1.0" standalone="no"?>
<!DOCTYPE svg PUBLIC "-//W3C//DTD SVG 20010904//EN"
 "http://www.w3.org/TR/2001/REC-SVG-20010904/DTD/svg10.dtd">
<svg version="1.0" xmlns="http://www.w3.org/2000/svg"
 width="360.000000pt" height="360.000000pt" viewBox="0 0 360.000000 360.000000"
 preserveAspectRatio="xMidYMid meet">
<metadata>
Created by potrace 1.11, written by Peter Selinger 2001-2013
</metadata>
<g transform="translate(0.000000,360.000000) scale(0.100000,-0.100000)"
fill="#000000" stroke="none">
<path d="M1605 3590 c-200 -23 -428 -91 -614 -184 -868 -436 -1233 -1490 -820
-2366 55 -116 138 -260 151 -260 4 0 8 -5 8 -11 0 -14 87 -123 166 -209 204
-219 519 -410 809 -490 44 -12 88 -24 98 -26 16 -5 17 11 17 238 0 504 64
1105 156 1472 60 238 164 550 191 572 10 9 3 14 -33 24 l-47 13 -28 -34 c-135
-160 -266 -359 -317 -478 -56 -131 -67 -162 -97 -275 -17 -66 -34 -115 -37
-110 -14 22 -68 207 -83 283 -24 115 -17 313 13 389 66 169 231 276 444 289
81 5 86 7 91 29 2 14 -1 24 -7 24 -6 1 -54 6 -107 13 -52 7 -108 10 -125 6
-16 -4 -90 -12 -164 -18 -119 -9 -153 -16 -285 -59 -160 -52 -247 -93 -360
-165 -38 -25 -71 -44 -73 -42 -7 6 117 240 167 315 153 231 301 343 472 357
130 11 278 -56 404 -182 44 -44 91 -99 105 -122 30 -51 64 -58 75 -16 13 55
-92 203 -220 309 -33 27 -89 76 -125 109 -78 73 -145 112 -271 161 -52 19 -98
39 -102 43 -17 17 198 45 343 46 152 0 216 -12 303 -57 163 -83 242 -315 181
-534 -4 -15 1 -23 19 -31 21 -10 31 -5 88 39 103 80 210 127 340 147 243 39
454 -123 599 -459 40 -92 115 -319 107 -326 -2 -2 -31 19 -63 48 -99 88 -133
112 -274 190 -272 152 -289 158 -590 223 -128 28 -146 30 -155 15 -12 -19 51
-70 87 -70 59 0 172 -29 235 -60 79 -39 161 -126 193 -206 35 -88 40 -290 10
-433 -18 -90 -87 -297 -96 -288 -2 1 -16 70 -33 153 -24 125 -39 171 -85 273
-64 142 -141 257 -238 356 -37 38 -68 72 -68 76 0 4 -18 5 -41 2 -32 -5 -47
-1 -71 17 -24 18 -30 19 -25 6 4 -9 -5 -87 -19 -174 -100 -626 -124 -907 -112
-1306 11 -380 40 -651 84 -788 15 -47 16 -48 59 -48 77 0 248 21 345 42 416
89 797 333 1053 671 73 96 92 127 78 127 -6 0 -11 7 -11 16 0 11 6 15 19 11
48 -12 197 340 245 578 128 644 -105 1312 -605 1730 -252 211 -534 342 -864
400 -108 19 -379 27 -490 15z m75 -305 c0 -8 -7 -15 -15 -15 -8 0 -15 7 -15
15 0 8 7 15 15 15 8 0 15 -7 15 -15z m870 -270 c0 -8 -7 -15 -15 -15 -8 0 -15
7 -15 15 0 8 7 15 15 15 8 0 15 -7 15 -15z m180 -120 c0 -8 -7 -15 -15 -15 -8
0 -15 7 -15 15 0 8 7 15 15 15 8 0 15 -7 15 -15z m-2220 -240 c0 -8 -7 -15
-15 -15 -8 0 -15 7 -15 15 0 8 7 15 15 15 8 0 15 -7 15 -15z m990 -750 c0 -8
-7 -15 -15 -15 -8 0 -15 7 -15 15 0 8 7 15 15 15 8 0 15 -7 15 -15z m-90 -810
c0 -8 -7 -15 -15 -15 -8 0 -15 7 -15 15 0 8 7 15 15 15 8 0 15 -7 15 -15z
m-660 -30 c0 -8 -7 -15 -15 -15 -8 0 -15 7 -15 15 0 8 7 15 15 15 8 0 15 -7
15 -15z m2070 -300 c0 -8 -7 -15 -15 -15 -8 0 -15 7 -15 15 0 8 7 15 15 15 8
0 15 -7 15 -15z m-2370 -60 c0 -8 -7 -15 -15 -15 -8 0 -15 7 -15 15 0 8 7 15
15 15 8 0 15 -7 15 -15z m1890 -90 c0 -8 -7 -15 -15 -15 -8 0 -15 7 -15 15 0
8 7 15 15 15 8 0 15 -7 15 -15z m-330 -210 c0 -8 -7 -15 -15 -15 -8 0 -15 7
-15 15 0 8 7 15 15 15 8 0 15 -7 15 -15z m-630 -240 c0 -8 -7 -15 -15 -15 -8
0 -15 7 -15 15 0 8 7 15 15 15 8 0 15 -7 15 -15z m510 -30 c0 -8 -7 -15 -15
-15 -8 0 -15 7 -15 15 0 8 7 15 15 15 8 0 15 -7 15 -15z"/>
<path d="M1806 2605 c-30 -23 -15 -25 24 -5 26 14 30 19 15 19 -11 0 -29 -6
-39 -14z"/>
<path d="M1941 2560 c15 -45 24 -54 15 -15 -4 17 -12 34 -17 40 -5 5 -4 -6 2
-25z"/>
<path d="M1699 2513 c-13 -16 -12 -17 4 -4 9 7 17 15 17 17 0 8 -8 3 -21 -13z"/>
<path d="M1770 2499 c10 -32 30 -63 37 -55 5 4 -35 86 -42 86 -2 0 0 -14 5
-31z"/>
<path d="M1848 2463 c-15 -9 -29 -26 -32 -37 -9 -32 -7 -68 3 -64 12 4 121
106 121 112 0 13 -67 4 -92 -11z"/>
<path d="M1977 2366 c-9 -27 -15 -51 -13 -54 10 -10 37 49 34 75 -3 25 -5 23
-21 -21z"/>
<path d="M2550 2355 c0 -8 7 -15 15 -15 8 0 15 7 15 15 0 8 -7 15 -15 15 -8 0
-15 -7 -15 -15z"/>
<path d="M1440 2145 c0 -8 7 -15 15 -15 8 0 15 7 15 15 0 8 -7 15 -15 15 -8 0
-15 -7 -15 -15z"/>
<path d="M1710 2145 c0 -8 7 -15 15 -15 8 0 15 7 15 15 0 8 -7 15 -15 15 -8 0
-15 -7 -15 -15z"/>
<path d="M1560 1245 c0 -8 7 -15 15 -15 8 0 15 7 15 15 0 8 -7 15 -15 15 -8 0
-15 -7 -15 -15z"/>
<path d="M1560 825 c0 -8 7 -15 15 -15 8 0 15 7 15 15 0 8 -7 15 -15 15 -8 0
-15 -7 -15 -15z"/>
<path d="M1680 225 c0 -8 7 -15 15 -15 8 0 15 7 15 15 0 8 -7 15 -15 15 -8 0
-15 -7 -15 -15z"/>
</g>
</svg>
